<svg id="visual" viewBox="0 0 1920 1024" width="1920" height="1024" xmlns="http://www.w3.org/2000/svg" xmlns:xlink="http://www.w3.org/1999/xlink" version="1.1"><path d="M0 216L26.7 187C53.3 158 106.7 100 160 110.2C213.3 120.3 266.7 198.7 320 241.3C373.3 284 426.7 291 480 272.3C533.3 253.7 586.7 209.3 640 192.3C693.3 175.3 746.7 185.7 800 178.8C853.3 172 906.7 148 960 120.7C1013.3 93.3 1066.7 62.7 1120 57.5C1173.3 52.3 1226.7 72.7 1280 76C1333.3 79.3 1386.7 65.7 1440 60.5C1493.3 55.3 1546.7 58.7 1600 106.5C1653.3 154.3 1706.7 246.7 1760 304.8C1813.3 363 1866.7 387 1893.3 399L1920 411L1920 0L1893.3 0C1866.7 0 1813.3 0 1760 0C1706.7 0 1653.3 0 1600 0C1546.7 0 1493.3 0 1440 0C1386.7 0 1333.3 0 1280 0C1226.7 0 1173.3 0 1120 0C1066.7 0 1013.3 0 960 0C906.7 0 853.3 0 800 0C746.7 0 693.3 0 640 0C586.7 0 533.3 0 480 0C426.7 0 373.3 0 320 0C266.7 0 213.3 0 160 0C106.7 0 53.3 0 26.7 0L0 0Z" fill="#259778"></path><path d="M0 359L26.7 401.7C53.3 444.3 106.7 529.7 160 517.8C213.3 506 266.7 397 320 380C373.3 363 426.7 438 480 482.3C533.3 526.7 586.7 540.3 640 576.2C693.3 612 746.7 670 800 705.8C853.3 741.7 906.7 755.3 960 721.2C1013.3 687 1066.7 605 1120 541.8C1173.3 478.7 1226.7 434.3 1280 487.3C1333.3 540.3 1386.7 690.7 1440 648C1493.3 605.3 1546.7 369.7 1600 366.2C1653.3 362.7 1706.7 591.3 1760 683.5C1813.3 775.7 1866.7 731.3 1893.3 709.2L1920 687L1920 409L1893.3 397C1866.7 385 1813.3 361 1760 302.8C1706.7 244.7 1653.3 152.3 1600 104.5C1546.7 56.7 1493.3 53.3 1440 58.5C1386.7 63.7 1333.3 77.3 1280 74C1226.7 70.7 1173.3 50.3 1120 55.5C1066.7 60.7 1013.3 91.3 960 118.7C906.7 146 853.3 170 800 176.8C746.7 183.7 693.3 173.3 640 190.3C586.7 207.3 533.3 251.7 480 270.3C426.7 289 373.3 282 320 239.3C266.7 196.7 213.3 118.3 160 108.2C106.7 98 53.3 156 26.7 185L0 214Z" fill="#00a3a0"></path><path d="M0 626L26.7 680.5C53.3 735 106.7 844 160 871.2C213.3 898.3 266.7 843.7 320 790.8C373.3 738 426.7 687 480 676.8C533.3 666.7 586.7 697.3 640 731.5C693.3 765.7 746.7 803.3 800 827.2C853.3 851 906.7 861 960 820C1013.3 779 1066.7 687 1120 668.3C1173.3 649.7 1226.7 704.3 1280 748.7C1333.3 793 1386.7 827 1440 825.3C1493.3 823.7 1546.7 786.3 1600 813.7C1653.3 841 1706.7 933 1760 951.7C1813.3 970.3 1866.7 915.7 1893.3 888.3L1920 861L1920 685L1893.3 707.2C1866.7 729.3 1813.3 773.7 1760 681.5C1706.7 589.3 1653.3 360.7 1600 364.2C1546.7 367.7 1493.3 603.3 1440 646C1386.7 688.7 1333.3 538.3 1280 485.3C1226.7 432.3 1173.3 476.7 1120 539.8C1066.7 603 1013.3 685 960 719.2C906.7 753.3 853.3 739.7 800 703.8C746.7 668 693.3 610 640 574.2C586.7 538.3 533.3 524.7 480 480.3C426.7 436 373.3 361 320 378C266.7 395 213.3 504 160 515.8C106.7 527.7 53.3 442.3 26.7 399.7L0 357Z" fill="#28adc3"></path><path d="M0 871L26.7 893.3C53.3 915.7 106.7 960.3 160 979.2C213.3 998 266.7 991 320 946.5C373.3 902 426.7 820 480 816.7C533.3 813.3 586.7 888.7 640 928C693.3 967.3 746.7 970.7 800 972.3C853.3 974 906.7 974 960 945C1013.3 916 1066.7 858 1120 846C1173.3 834 1226.7 868 1280 883.3C1333.3 898.7 1386.7 895.3 1440 895.3C1493.3 895.3 1546.7 898.7 1600 920.8C1653.3 943 1706.7 984 1760 999.3C1813.3 1014.7 1866.7 1004.3 1893.3 999.2L1920 994L1920 859L1893.3 886.3C1866.7 913.7 1813.3 968.3 1760 949.7C1706.7 931 1653.3 839 1600 811.7C1546.7 784.3 1493.3 821.7 1440 823.3C1386.7 825 1333.3 791 1280 746.7C1226.7 702.3 1173.3 647.7 1120 666.3C1066.7 685 1013.3 777 960 818C906.7 859 853.3 849 800 825.2C746.7 801.3 693.3 763.7 640 729.5C586.7 695.3 533.3 664.7 480 674.8C426.7 685 373.3 736 320 788.8C266.7 841.7 213.3 896.3 160 869.2C106.7 842 53.3 733 26.7 678.5L0 624Z" fill="#5fb5dd"></path><path d="M0 1025L26.7 1025C53.3 1025 106.7 1025 160 1025C213.3 1025 266.7 1025 320 1025C373.3 1025 426.7 1025 480 1025C533.3 1025 586.7 1025 640 1025C693.3 1025 746.7 1025 800 1025C853.3 1025 906.7 1025 960 1025C1013.3 1025 1066.7 1025 1120 1025C1173.3 1025 1226.7 1025 1280 1025C1333.3 1025 1386.7 1025 1440 1025C1493.3 1025 1546.7 1025 1600 1025C1653.3 1025 1706.7 1025 1760 1025C1813.3 1025 1866.7 1025 1893.3 1025L1920 1025L1920 992L1893.3 997.2C1866.7 1002.3 1813.3 1012.7 1760 997.3C1706.7 982 1653.3 941 1600 918.8C1546.7 896.7 1493.3 893.3 1440 893.3C1386.7 893.3 1333.3 896.7 1280 881.3C1226.7 866 1173.3 832 1120 844C1066.7 856 1013.3 914 960 943C906.7 972 853.3 972 800 970.3C746.7 968.7 693.3 965.3 640 926C586.7 886.7 533.3 811.3 480 814.7C426.7 818 373.3 900 320 944.5C266.7 989 213.3 996 160 977.2C106.7 958.3 53.3 913.7 26.7 891.3L0 869Z" fill="#92bbec"></path></svg>