<svg viewBox="0 0 72 72" xmlns="http://www.w3.org/2000/svg"><path d="m31.0713 10.4815h7.9472v55.1819h-7.9472z" fill="#6a462f"/><path d="m31.071 18.66v-8.179h7.947v6.077z" fill="#a57939"/><path d="m42.605 14.992h15.576l4.692 6.18-4.692 6.249h-15.576z" fill="#a57939"/><path d="m27.425 27.091h-15.577l-4.691 6.18 4.691 6.25h15.577z" fill="#6a462f"/><path d="m42.605 23.216 18.37-4.544 1.898 2.5-4.692 6.249h-15.576z" fill="#6a462f"/><path d="m7.157 33.271 20.268-6.18h-15.577z" fill="#a57939"/><g fill="none" stroke="#000" stroke-linecap="round" stroke-linejoin="round" stroke-width="2"><path d="m18.23 27.091h-6.382l-4.691 6.18 4.691 6.25h15.577v-5.539"/><path d="m46.711 14.992h11.47l4.692 6.18-4.692 6.249h-15.576v-4.205"/><path d="m31.071 65.663v-55.182h7.947v55.182"/></g></svg>